
0
SECTION
2
HEADER
0
ENDSEC
0
SECTION
2
TABLES
0
TABLE
2
LAYER
0
ENDTAB
0
ENDSEC
0
SECTION
2
ENTITIES
0
LINE
8
0
10
0
20
0
11
100
21
100
0
CIRCLE
8
0
10
0
20
0
40
50
0
POINT
8
0
10
0
20
0
0
ARC
8
0
10
0
20
0
40
50
50
0
51
90
0
LINE
8
0
10
0
20
0
11
100
21
0
0
LINE
8
0
10
100
20
0
11
100
21
100
0
LINE
8
0
10
100
20
100
11
0
21
100
0
LINE
8
0
10
0
20
100
11
0
21
0
0
LINE
8
0
10
0
20
0
11
100
21
0
0
LINE
8
0
10
100
20
0
11
100
21
100
0
LINE
8
0
10
100
20
100
11
0
21
100
0
LINE
8
0
10
0
20
100
11
0
21
0
0
LINE
8
0
10
0
20
0
11
100
21
100
0
CIRCLE
8
0
10
0
20
0
40
50
0
ARC
8
0
10
0
20
0
40
50
50
0
51
90
0
LINE
8
0
10
0
20
0
11
100
21
0
0
LINE
8
0
10
100
20
0
11
100
21
100
0
LINE
8
0
10
100
20
100
11
0
21
100
0
LINE
8
0
10
0
20
100
11
0
21
0
0
POINT
8
0
10
0
20
0
0
LINE
8
0
10
0
20
0
11
100
21
0
0
LINE
8
0
10
100
20
0
11
100
21
100
0
LINE
8
0
10
100
20
100
11
0
21
100
0
LINE
8
0
10
0
20
100
11
0
21
0
0
LINE
8
0
10
100
20
100
11
200
21
200
0
CIRCLE
8
0
10
100
20
100
40
50
0
ARC
8
0
10
100
20
100
40
50
50
0
51
90
0
LINE
8
0
10
100
20
100
11
200
21
100
0
LINE
8
0
10
200
20
100
11
200
21
200
0
LINE
8
0
10
200
20
200
11
100
21
200
0
LINE
8
0
10
100
20
200
11
100
21
100
0
POINT
8
0
10
100
20
100
0
LINE
8
0
10
100
20
100
11
200
21
100
0
LINE
8
0
10
200
20
100
11
200
21
200
0
LINE
8
0
10
200
20
200
11
100
21
200
0
LINE
8
0
10
100
20
200
11
100
21
100
0
LINE
8
0
10
200
20
200
11
300
21
300
0
CIRCLE
8
0
10
200
20
200
40
50
0
ARC
8
0
10
200
20
200
40
50
50
0
51
90
0
LINE
8
0
10
200
20
200
11
300
21
200
0
LINE
8
0
10
300
20
200
11
300
21
300
0
LINE
8
0
10
300
20
300
11
200
21
300
0
LINE
8
0
10
200
20
300
11
200
21
200
0
POINT
8
0
10
200
20
200
0
LINE
8
0
10
200
20
200
11
300
21
200
0
LINE
8
0
10
300
20
200
11
300
21
300
0
LINE
8
0
10
300
20
300
11
200
21
300
0
LINE
8
0
10
200
20
300
11
200
21
200
0
LINE
8
0
10
0
20
0
11
100
21
100
0
CIRCLE
8
0
10
0
20
0
40
50
0
ARC
8
0
10
0
20
0
40
50
50
0
51
90
0
LINE
8
0
10
0
20
0
11
100
21
0
0
LINE
8
0
10
100
20
0
11
100
21
100
0
LINE
8
0
10
100
20
100
11
0
21
100
0
LINE
8
0
10
0
20
100
11
0
21
0
0
POINT
8
0
10
0
20
0
0
LINE
8
0
10
0
20
0
11
100
21
0
0
LINE
8
0
10
100
20
0
11
100
21
100
0
LINE
8
0
10
100
20
100
11
0
21
100
0
LINE
8
0
10
0
20
100
11
0
21
0
0
LINE
8
0
10
0
20
0
11
-136.60254037844385
21
36.6025403784439
0
CIRCLE
8
0
10
0
20
0
40
50
0
ARC
8
0
10
0
20
0
40
50
50
0
51
90
0
LINE
8
0
10
0
20
0
11
100
21
0
0
LINE
8
0
10
100
20
0
11
100
21
100
0
LINE
8
0
10
100
20
100
11
0
21
100
0
LINE
8
0
10
0
20
100
11
0
21
0
0
POINT
8
0
10
0
20
0
0
LINE
8
0
10
0
20
0
11
-49.99999999999998
21
86.60254037844388
0
LINE
8
0
10
-49.99999999999998
20
86.60254037844388
11
-136.60254037844385
21
36.6025403784439
0
LINE
8
0
10
-136.60254037844385
20
36.6025403784439
11
-86.60254037844388
21
-49.99999999999998
0
LINE
8
0
10
-86.60254037844388
20
-49.99999999999998
11
0
21
0
0
LINE
8
0
10
0
20
0
11
36.602540378443805
21
-136.6025403784439
0
CIRCLE
8
0
10
0
20
0
40
50
0
ARC
8
0
10
0
20
0
40
50
50
0
51
90
0
LINE
8
0
10
0
20
0
11
100
21
0
0
LINE
8
0
10
100
20
0
11
100
21
100
0
LINE
8
0
10
100
20
100
11
0
21
100
0
LINE
8
0
10
0
20
100
11
0
21
0
0
POINT
8
0
10
0
20
0
0
LINE
8
0
10
0
20
0
11
-50.00000000000004
21
-86.60254037844385
0
LINE
8
0
10
-50.00000000000004
20
-86.60254037844385
11
36.602540378443805
21
-136.6025403784439
0
LINE
8
0
10
36.602540378443805
20
-136.6025403784439
11
86.60254037844385
21
-50.00000000000004
0
LINE
8
0
10
86.60254037844385
20
-50.00000000000004
11
0
21
0
0
LINE
8
0
10
0
20
0
11
100
21
-100
0
CIRCLE
8
0
10
0
20
0
40
50
0
ARC
8
0
10
0
20
0
40
50
50
0
51
90
0
LINE
8
0
10
0
20
0
11
100
21
0
0
LINE
8
0
10
100
20
0
11
100
21
100
0
LINE
8
0
10
100
20
100
11
0
21
100
0
LINE
8
0
10
0
20
100
11
0
21
0
0
POINT
8
0
10
0
20
0
0
LINE
8
0
10
0
20
0
11
100
21
0
0
LINE
8
0
10
100
20
0
11
100
21
-100
0
LINE
8
0
10
100
20
-100
11
0
21
-100
0
LINE
8
0
10
0
20
-100
11
0
21
0
0
ENDSEC
0
EOF